HIERARCHY
ROOT Hips
{
	OFFSET 0.000000 0.000000 0.000000
	CHANNELS 6 Xposition Yposition Zposition Zrotation Yrotation Xrotation 
	JOINT Spine1
	{
		OFFSET -0.013727 5.003763 -0.053727
		CHANNELS 3 Zrotation Yrotation Xrotation
		JOINT Spine2
		{
			OFFSET -0.000000 7.125302 -0.029825
			CHANNELS 3 Zrotation Yrotation Xrotation
			JOINT Chest
			{
				OFFSET -0.000001 7.550064 -0.815971
				CHANNELS 3 Zrotation Yrotation Xrotation
				JOINT Neck1
				{
					OFFSET -0.181676 26.311296 -0.553348
					CHANNELS 3 Zrotation Yrotation Xrotation
					JOINT Neck2
					{
						OFFSET -0.000003 7.709400 2.302586
						CHANNELS 3 Zrotation Yrotation Xrotation
						JOINT Head
						{
							OFFSET -0.000005 6.128913 1.953709
							CHANNELS 3 Zrotation Yrotation Xrotation
							JOINT HeadEnd
							{
								OFFSET 0.003598 16.065399 -1.835380
								CHANNELS 3 Zrotation Yrotation Xrotation
								End Site
								{
									OFFSET 0.000000 0.000000 0.000000
								}
							}
							JOINT Jaw
							{
								OFFSET 0.002637 0.475591 3.094941
								CHANNELS 3 Zrotation Yrotation Xrotation
								End Site
								{
									OFFSET 0.000000 0.000000 0.000000
								}
							}
							JOINT LeftEye
							{
								OFFSET 3.206381 5.380207 7.586883
								CHANNELS 3 Zrotation Yrotation Xrotation
								End Site
								{
									OFFSET 0.000000 0.000000 0.000000
								}
							}
							JOINT RightEye
							{
								OFFSET -3.222440 5.361866 7.558234
								CHANNELS 3 Zrotation Yrotation Xrotation
								End Site
								{
									OFFSET 0.000000 0.000000 0.000000
								}
							}
						}
					}
				}
				JOINT LeftShoulder
				{
					OFFSET 1.621652 23.237164 5.113413
					CHANNELS 3 Zrotation Yrotation Xrotation
					JOINT LeftArm
					{
						OFFSET 14.919845 0.000000 -5.502326
						CHANNELS 3 Zrotation Yrotation Xrotation
						JOINT LeftForeArm
						{
							OFFSET 28.739309 0.000003 -0.002588
							CHANNELS 3 Zrotation Yrotation Xrotation
							JOINT LeftHand
							{
								OFFSET 27.093979 -0.000003 0.002609
								CHANNELS 3 Zrotation Yrotation Xrotation
								JOINT LeftHandThumb1
								{
									OFFSET 2.276481 -1.392045 3.191413
									CHANNELS 3 Zrotation Yrotation Xrotation
									JOINT LeftHandThumb2
									{
										OFFSET 4.012841 -1.828126 1.641655
										CHANNELS 3 Zrotation Yrotation Xrotation
										JOINT LeftHandThumb3
										{
											OFFSET 2.798516 0.000001 -0.000003
											CHANNELS 3 Zrotation Yrotation Xrotation
											JOINT LeftHandThumbEnd
											{
												OFFSET 3.180791 -0.000003 0.000002
												CHANNELS 3 Zrotation Yrotation Xrotation
												End Site
												{
													OFFSET 0.000000 0.000000 0.000000
												}
											}
										}
									}
								}
								JOINT LeftHandIndex1
								{
									OFFSET 3.247554 -0.531998 2.296169
									CHANNELS 3 Zrotation Yrotation Xrotation
									JOINT LeftHandIndex2
									{
										OFFSET 6.364579 0.012062 0.178599
										CHANNELS 3 Zrotation Yrotation Xrotation
										JOINT LeftHandIndex3
										{
											OFFSET 3.662366 0.000001 0.000000
											CHANNELS 3 Zrotation Yrotation Xrotation
											JOINT LeftHandIndex4
											{
												OFFSET 2.329242 0.000002 0.000004
												CHANNELS 3 Zrotation Yrotation Xrotation
												JOINT LeftHandIndexEnd
												{
													OFFSET 2.759619 -0.180539 -0.113023
													CHANNELS 3 Zrotation Yrotation Xrotation
													End Site
													{
														OFFSET 0.000000 0.000000 0.000000
													}
												}
											}
										}
									}
								}
								JOINT LeftHandMiddle1
								{
									OFFSET 3.163499 0.240982 1.000332
									CHANNELS 3 Zrotation Yrotation Xrotation
									JOINT LeftHandMiddle2
									{
										OFFSET 6.190778 -0.259276 -1.002548
										CHANNELS 3 Zrotation Yrotation Xrotation
										JOINT LeftHandMiddle3
										{
											OFFSET 4.356522 -0.000006 0.000000
											CHANNELS 3 Zrotation Yrotation Xrotation
											JOINT LeftHandMiddle4
											{
												OFFSET 2.996875 -0.000006 0.000001
												CHANNELS 3 Zrotation Yrotation Xrotation
												JOINT LeftHandMiddleEnd
												{
													OFFSET 2.304294 -0.294571 -0.031740
													CHANNELS 3 Zrotation Yrotation Xrotation
													End Site
													{
														OFFSET 0.000000 0.000000 0.000000
													}
												}
											}
										}
									}
								}
								JOINT LeftHandRing1
								{
									OFFSET 2.882642 -0.053650 -0.322543
									CHANNELS 3 Zrotation Yrotation Xrotation
									JOINT LeftHandRing2
									{
										OFFSET 5.854543 -0.486203 -1.373841
										CHANNELS 3 Zrotation Yrotation Xrotation
										JOINT LeftHandRing3
										{
											OFFSET 4.350580 -0.000000 0.000004
											CHANNELS 3 Zrotation Yrotation Xrotation
											JOINT LeftHandRing4
											{
												OFFSET 2.651325 0.000007 0.000002
												CHANNELS 3 Zrotation Yrotation Xrotation
												JOINT LeftHandRingEnd
												{
													OFFSET 1.936111 0.077685 -0.000070
													CHANNELS 3 Zrotation Yrotation Xrotation
													End Site
													{
														OFFSET 0.000000 0.000000 0.000000
													}
												}
											}
										}
									}
								}
								JOINT LeftHandPinky1
								{
									OFFSET 2.865500 -0.310003 -1.600378
									CHANNELS 3 Zrotation Yrotation Xrotation
									JOINT LeftHandPinky2
									{
										OFFSET 5.087853 -1.331141 -1.771231
										CHANNELS 3 Zrotation Yrotation Xrotation
										JOINT LeftHandPinky3
										{
											OFFSET 3.070975 0.000003 0.000001
											CHANNELS 3 Zrotation Yrotation Xrotation
											JOINT LeftHandPinky4
											{
												OFFSET 1.549667 -0.000001 0.000001
												CHANNELS 3 Zrotation Yrotation Xrotation
												JOINT LeftHandPinkyEnd
												{
													OFFSET 1.944894 -0.157801 0.057219
													CHANNELS 3 Zrotation Yrotation Xrotation
													End Site
													{
														OFFSET 0.000000 0.000000 0.000000
													}
												}
											}
										}
									}
								}
							}
						}
					}
				}
				JOINT RightShoulder
				{
					OFFSET -1.380118 23.180309 5.214158
					CHANNELS 3 Zrotation Yrotation Xrotation
					JOINT RightArm
					{
						OFFSET -15.037197 0.000012 -5.545604
						CHANNELS 3 Zrotation Yrotation Xrotation
						JOINT RightForeArm
						{
							OFFSET -28.736639 0.000003 -0.002597
							CHANNELS 3 Zrotation Yrotation Xrotation
							JOINT RightHand
							{
								OFFSET -27.133617 -0.000000 0.002613
								CHANNELS 3 Zrotation Yrotation Xrotation
								JOINT RightHandThumb1
								{
									OFFSET -2.274036 -1.383990 3.163128
									CHANNELS 3 Zrotation Yrotation Xrotation
									JOINT RightHandThumb2
									{
										OFFSET -4.011428 -1.827467 1.640914
										CHANNELS 3 Zrotation Yrotation Xrotation
										JOINT RightHandThumb3
										{
											OFFSET -2.794934 -0.000004 -0.000004
											CHANNELS 3 Zrotation Yrotation Xrotation
											JOINT RightHandThumbEnd
											{
												OFFSET -3.183855 0.000004 0.000001
												CHANNELS 3 Zrotation Yrotation Xrotation
												End Site
												{
													OFFSET 0.000000 0.000000 0.000000
												}
											}
										}
									}
								}
								JOINT RightHandIndex1
								{
									OFFSET -3.253268 -0.520060 2.282866
									CHANNELS 3 Zrotation Yrotation Xrotation
									JOINT RightHandIndex2
									{
										OFFSET -6.341918 0.012473 0.178265
										CHANNELS 3 Zrotation Yrotation Xrotation
										JOINT RightHandIndex3
										{
											OFFSET -3.654875 -0.000009 -0.000001
											CHANNELS 3 Zrotation Yrotation Xrotation
											JOINT RightHandIndex4
											{
												OFFSET -2.327586 -0.000001 -0.000000
												CHANNELS 3 Zrotation Yrotation Xrotation
												JOINT RightHandIndexEnd
												{
													OFFSET -2.761789 -0.180657 -0.113078
													CHANNELS 3 Zrotation Yrotation Xrotation
													End Site
													{
														OFFSET 0.000000 0.000000 0.000000
													}
												}
											}
										}
									}
								}
								JOINT RightHandMiddle1
								{
									OFFSET -3.168106 0.246593 1.001030
									CHANNELS 3 Zrotation Yrotation Xrotation
									JOINT RightHandMiddle2
									{
										OFFSET -6.180830 -0.258836 -1.000896
										CHANNELS 3 Zrotation Yrotation Xrotation
										JOINT RightHandMiddle3
										{
											OFFSET -4.348906 -0.000000 -0.000000
											CHANNELS 3 Zrotation Yrotation Xrotation
											JOINT RightHandMiddle4
											{
												OFFSET -3.000243 -0.000003 -0.000003
												CHANNELS 3 Zrotation Yrotation Xrotation
												JOINT RightHandMiddleEnd
												{
													OFFSET -2.302517 -0.294371 -0.031706
													CHANNELS 3 Zrotation Yrotation Xrotation
													End Site
													{
														OFFSET 0.000000 0.000000 0.000000
													}
												}
											}
										}
									}
								}
								JOINT RightHandRing1
								{
									OFFSET -2.885693 -0.067953 -0.308858
									CHANNELS 3 Zrotation Yrotation Xrotation
									JOINT RightHandRing2
									{
										OFFSET -5.854196 -0.486132 -1.373732
										CHANNELS 3 Zrotation Yrotation Xrotation
										JOINT RightHandRing3
										{
											OFFSET -4.338814 -0.000003 -0.000000
											CHANNELS 3 Zrotation Yrotation Xrotation
											JOINT RightHandRing4
											{
												OFFSET -2.654905 -0.000005 0.000003
												CHANNELS 3 Zrotation Yrotation Xrotation
												JOINT RightHandRingEnd
												{
													OFFSET -1.933570 0.077524 -0.000052
													CHANNELS 3 Zrotation Yrotation Xrotation
													End Site
													{
														OFFSET 0.000000 0.000000 0.000000
													}
												}
											}
										}
									}
								}
								JOINT RightHandPinky1
								{
									OFFSET -2.866429 -0.342799 -1.584145
									CHANNELS 3 Zrotation Yrotation Xrotation
									JOINT RightHandPinky2
									{
										OFFSET -5.091370 -1.332053 -1.772385
										CHANNELS 3 Zrotation Yrotation Xrotation
										JOINT RightHandPinky3
										{
											OFFSET -3.062666 -0.000007 0.000000
											CHANNELS 3 Zrotation Yrotation Xrotation
											JOINT RightHandPinky4
											{
												OFFSET -1.546526 0.000007 -0.000003
												CHANNELS 3 Zrotation Yrotation Xrotation
												JOINT RightHandPinkyEnd
												{
													OFFSET -1.945122 -0.157721 0.057211
													CHANNELS 3 Zrotation Yrotation Xrotation
													End Site
													{
														OFFSET 0.000000 0.000000 0.000000
													}
												}
											}
										}
									}
								}
							}
						}
					}
				}
			}
		}
	}
	JOINT LeftLeg
	{
		OFFSET 10.043214 -8.434526 2.595654
		CHANNELS 3 Zrotation Yrotation Xrotation
		JOINT LeftShin
		{
			OFFSET -0.000002 -43.221752 -0.802913
			CHANNELS 3 Zrotation Yrotation Xrotation
			JOINT LeftFoot
			{
				OFFSET 0.000001 -42.155094 -3.481523
				CHANNELS 3 Zrotation Yrotation Xrotation
				JOINT LeftToeBase
				{
					OFFSET 0.000000 -5.059475 13.231529
					CHANNELS 3 Zrotation Yrotation Xrotation
					JOINT LeftToeEnd
					{
						OFFSET -0.009607 -1.647616 6.513017
						CHANNELS 3 Zrotation Yrotation Xrotation
						End Site
						{
							OFFSET 0.000000 0.000000 0.000000
						}
					}
				}
			}
		}
	}
	JOINT RightLeg
	{
		OFFSET -10.047277 -8.295259 2.620317
		CHANNELS 3 Zrotation Yrotation Xrotation
		JOINT RightShin
		{
			OFFSET 0.000001 -43.362209 -0.805556
			CHANNELS 3 Zrotation Yrotation Xrotation
			JOINT RightFoot
			{
				OFFSET 0.000003 -42.117393 -3.478398
				CHANNELS 3 Zrotation Yrotation Xrotation
				JOINT RightToeBase
				{
					OFFSET -0.000001 -5.079609 13.284196
					CHANNELS 3 Zrotation Yrotation Xrotation
					JOINT RightToeEnd
					{
						OFFSET 0.009532 -1.634384 6.460591
						CHANNELS 3 Zrotation Yrotation Xrotation
						End Site
						{
							OFFSET 0.000000 0.000000 0.000000
						}
					}
				}
			}
		}
	}
}
MOTION
Frames: 5
Frame Time: 0.033333
2.926912 87.956276 46.268761 1.538665 1.985029 1.084696 0.057725 1.353908 4.155881 -0.300814 3.488695 -3.336668 -0.003801 1.947938 6.484313 -14.678371 12.651460 14.278115 1.394187 7.243248 -3.692581 -0.163319 7.382847 -8.765686 0.000077 -0.000022 0.000006 -0.049307 0.176103 0.017101 0.681042 -3.570160 -10.649438 -0.788707 3.892109 -10.667508 6.886844 -0.493575 6.657835 -50.648670 -37.509415 -25.469145 -179.139755 -43.320740 179.888107 8.355927 13.000923 15.193065 -5.882101 9.861278 0.702590 -10.936861 -0.360576 7.156197 0.000002 8.774814 -0.000002 -17.048038 16.681471 5.463309 -1.844032 2.498501 -2.507276 -10.163591 4.678938 4.621105 -20.975994 -0.000003 0.000005 -21.226255 2.451692 -3.593992 -0.000000 -0.000007 0.000000 -1.362680 2.240797 -0.746322 -21.334890 0.584907 3.008321 -13.821197 -0.000002 0.000004 -23.887135 -0.249075 -0.839479 -61.022144 2.091320 -0.983092 -0.294025 1.679687 0.833255 -14.218194 0.093213 1.300580 -34.212006 -0.287561 0.967171 -20.033180 0.964536 1.212842 0.000000 0.000002 0.000000 -3.440383 0.788233 0.501658 -15.928171 -3.167305 2.999703 -6.338819 -0.000002 0.000001 -18.123417 3.648177 -4.905659 -0.000004 0.000002 -0.000002 -10.076766 18.094481 5.432769 58.656235 54.305447 -2.048929 179.707642 58.267536 179.812332 -8.447720 -11.802415 8.624327 2.243539 -5.255033 -3.180155 14.282878 -0.826594 6.952496 -0.000001 -12.690587 0.000003 16.204857 -17.405380 2.586281 1.665666 -1.955921 -2.878296 4.727794 -4.170585 4.993917 11.020513 0.000003 -0.000001 12.109034 -3.735711 -2.866778 0.000001 0.000000 -0.000001 1.291984 -1.928547 -1.498088 14.800114 0.567466 3.865603 14.242554 -1.341734 -6.660645 19.631941 0.143925 -0.648242 50.377026 -0.835010 -5.865596 0.353027 -1.511149 -0.031941 20.222773 3.684304 2.316628 18.787251 0.000002 0.000000 10.751613 -0.479869 1.397902 0.000000 -0.000000 0.000001 3.273804 0.305947 -0.580110 21.486797 11.830360 2.266132 8.162919 0.000001 -0.000001 18.399059 -3.798978 -4.940567 0.000003 0.000000 -0.000001 16.014841 10.241131 -35.706619 -0.668554 -1.026058 45.522839 -21.085947 -13.135605 -5.248356 1.619126 -1.925893 -0.444787 -0.000000 -0.000000 0.000002 -29.145744 -15.385555 0.492791 0.751853 1.976047 37.065884 22.751947 17.439203 -14.011855 -1.460871 0.842844 -5.345797 0.000000 0.000000 -0.000001 
2.518839 88.184067 46.279266 1.730155 2.756828 1.088558 0.000240 1.345573 4.089623 -0.320851 3.431488 -3.365917 -0.214393 1.901941 6.523010 -14.492458 12.615831 14.345392 1.371107 7.198007 -3.674892 -0.285995 7.333997 -8.919540 0.000077 -0.000022 0.000006 -0.045944 0.137070 0.012761 0.683189 -3.598765 -10.657142 -0.780690 3.855428 -10.669627 6.617521 -0.693564 6.722081 -50.805370 -37.773449 -25.450741 -179.156296 -43.214546 179.746231 8.607915 12.550067 15.814587 -5.882101 9.861279 0.702590 -10.936858 -0.360576 7.156196 0.000003 8.774812 -0.000000 -16.977528 16.681202 5.452596 -1.844032 2.498503 -2.507276 -10.163589 4.678940 4.621104 -20.975998 -0.000005 0.000001 -21.226255 2.451693 -3.593994 -0.000000 -0.000007 0.000000 -1.362681 2.240795 -0.746325 -21.334894 0.584907 3.008320 -13.821197 -0.000001 0.000003 -23.887133 -0.249080 -0.839482 -60.968594 2.089240 -0.984128 -0.294025 1.679687 0.833255 -14.218192 0.093214 1.300578 -34.212006 -0.287568 0.967168 -20.033176 0.964534 1.212841 0.000001 0.000002 0.000000 -3.440387 0.788233 0.501657 -15.928165 -3.167307 2.999703 -6.338817 -0.000002 0.000001 -18.123415 3.648175 -4.905661 -0.000004 0.000003 -0.000002 -10.162318 18.038620 5.400955 58.439415 54.807308 -2.425495 179.618179 58.473595 179.777115 -8.333812 -12.123253 8.724021 2.243538 -5.255033 -3.180156 14.282875 -0.826591 6.952496 -0.000003 -12.690591 -0.000001 16.240902 -17.512308 2.562559 1.665666 -1.955920 -2.878297 4.727794 -4.170583 4.993918 11.020511 0.000003 -0.000001 12.109030 -3.735709 -2.866779 0.000000 0.000000 -0.000001 1.291983 -1.928548 -1.498088 14.800114 0.567468 3.865606 14.242553 -1.341735 -6.660650 19.631937 0.143925 -0.648242 50.311790 -0.868332 -5.854293 0.353028 -1.511148 -0.031940 20.222771 3.684305 2.316630 18.787243 0.000004 0.000001 10.751610 -0.479868 1.397905 0.000000 0.000000 0.000001 3.273804 0.305947 -0.580110 21.486790 11.830362 2.266135 8.162916 0.000002 0.000001 18.399052 -3.798979 -4.940566 0.000003 0.000000 -0.000002 15.853570 10.170214 -35.414948 -0.685198 -1.057321 44.330669 -21.510096 -13.110553 -4.229927 1.618125 -1.949538 -0.532397 0.000000 -0.000000 0.000002 -28.787224 -15.104366 0.712620 0.709711 2.022143 37.469688 22.273058 16.699394 -13.774759 -1.463218 0.845801 -5.680704 0.000000 0.000000 -0.000001 
2.024057 88.329468 46.198387 1.941560 3.656565 1.124735 -0.051814 1.343568 4.004812 -0.348424 3.369757 -3.395442 -0.428854 1.842687 6.532073 -14.251102 12.498345 14.406041 1.344297 7.137802 -3.675718 -0.424068 7.243006 -9.053001 0.000077 -0.000023 0.000006 -0.030714 0.087459 0.010008 0.698804 -3.649795 -10.679198 -0.772240 3.816297 -10.688298 6.449834 -0.979666 6.750808 -50.876541 -37.999878 -25.548115 -179.259201 -43.156231 179.665848 8.838919 12.088956 16.289944 -5.882101 9.861278 0.702590 -10.936860 -0.360575 7.156197 0.000001 8.774813 -0.000000 -16.847792 16.691032 5.455065 -1.844032 2.498503 -2.507275 -10.163587 4.678941 4.621104 -20.975992 -0.000003 0.000002 -21.226254 2.451690 -3.593994 -0.000000 -0.000007 0.000000 -1.362681 2.240797 -0.746322 -21.334887 0.584909 3.008322 -13.821197 -0.000003 0.000002 -23.887131 -0.249076 -0.839480 -60.843697 2.067898 -1.029904 -0.294026 1.679688 0.833258 -14.218194 0.093216 1.300578 -34.212002 -0.287563 0.967171 -20.033175 0.964536 1.212842 0.000001 0.000002 0.000000 -3.440386 0.788232 0.501653 -15.928171 -3.167306 2.999702 -6.338814 -0.000001 0.000002 -18.123415 3.648178 -4.905661 -0.000004 0.000003 -0.000001 -10.229308 17.913176 5.348281 58.147030 55.260155 -2.814032 179.768646 58.590992 179.949387 -8.257495 -12.392276 8.949725 2.243541 -5.255030 -3.180155 14.282879 -0.826593 6.952496 -0.000002 -12.690590 -0.000002 16.237556 -17.568657 2.547261 1.665665 -1.955919 -2.878296 4.727795 -4.170583 4.993918 11.020510 0.000004 -0.000001 12.109033 -3.735709 -2.866781 -0.000001 0.000000 -0.000001 1.291986 -1.928548 -1.498087 14.800117 0.567467 3.865603 14.242554 -1.341735 -6.660648 19.631939 0.143925 -0.648244 50.228867 -0.873048 -5.850907 0.353029 -1.511149 -0.031940 20.222769 3.684306 2.316627 18.787245 0.000004 -0.000002 10.751611 -0.479868 1.397904 -0.000000 0.000000 -0.000001 3.273804 0.305947 -0.580110 21.486790 11.830360 2.266128 8.162917 0.000002 -0.000001 18.399054 -3.798979 -4.940566 0.000003 -0.000000 -0.000001 15.698564 10.059982 -35.305557 -0.699916 -1.082926 43.180573 -21.919567 -13.120584 -3.144467 1.611489 -1.962672 -0.665185 0.000000 -0.000000 0.000002 -28.368937 -14.981230 0.947111 0.648557 2.019325 37.769306 21.823521 15.862286 -14.280916 -1.465330 0.852152 -5.787418 0.000000 0.000000 -0.000001 
1.474483 88.388992 46.121754 2.116221 4.537384 1.145629 -0.058017 1.361028 3.938622 -0.389208 3.349864 -3.417164 -0.585611 1.747029 6.552138 -14.016109 12.321884 14.424605 1.322148 7.085690 -3.671166 -0.587552 7.182714 -9.160472 0.000076 -0.000023 0.000007 -0.018532 0.038330 0.009440 0.715036 -3.705206 -10.694995 -0.763124 3.771937 -10.696014 6.353348 -1.299549 6.740780 -51.020172 -38.152111 -25.643158 -179.400497 -43.075195 179.668716 9.049264 11.719541 16.714144 -5.882103 9.861278 0.702591 -10.936857 -0.360575 7.156195 -0.000000 8.774813 -0.000001 -16.719568 16.695133 5.471127 -1.844032 2.498501 -2.507277 -10.163589 4.678941 4.621104 -20.976000 -0.000002 0.000002 -21.226255 2.451694 -3.593995 -0.000000 -0.000007 0.000000 -1.362680 2.240796 -0.746323 -21.334894 0.584910 3.008321 -13.821197 0.000000 0.000002 -23.887133 -0.249077 -0.839481 -60.679020 2.049753 -1.031777 -0.294024 1.679685 0.833256 -14.218194 0.093215 1.300579 -34.212006 -0.287561 0.967167 -20.033182 0.964534 1.212841 0.000000 0.000002 0.000000 -3.440386 0.788231 0.501652 -15.928171 -3.167306 2.999704 -6.338817 0.000000 0.000002 -18.123415 3.648177 -4.905662 -0.000004 0.000002 -0.000001 -10.286233 17.757013 5.279529 57.819946 55.675636 -3.207102 -179.977844 58.600922 -179.797974 -8.279654 -12.613645 9.222835 2.243540 -5.255033 -3.180155 14.282877 -0.826594 6.952496 -0.000002 -12.690590 0.000000 16.233717 -17.605772 2.547585 1.665664 -1.955919 -2.878297 4.727794 -4.170584 4.993917 11.020509 0.000004 0.000000 12.109030 -3.735710 -2.866781 0.000000 0.000000 0.000000 1.291985 -1.928547 -1.498088 14.800111 0.567468 3.865602 14.242551 -1.341735 -6.660648 19.631941 0.143926 -0.648241 50.202618 -0.848317 -5.836536 0.353029 -1.511150 -0.031940 20.222769 3.684307 2.316629 18.787245 0.000005 -0.000001 10.751610 -0.479868 1.397904 -0.000000 0.000000 0.000001 3.273807 0.305947 -0.580109 21.486792 11.830364 2.266133 8.162916 0.000002 0.000001 18.399050 -3.798980 -4.940567 0.000003 0.000000 0.000000 15.623596 9.992012 -35.260075 -0.699332 -1.114162 42.187935 -22.306229 -13.135368 -2.169757 1.607746 -1.973731 -0.766643 0.000000 -0.000000 0.000002 -27.951498 -15.038681 1.177662 0.584568 1.996260 38.111786 21.479143 15.230414 -15.105726 -1.467219 0.846627 -5.731323 0.000000 0.000000 -0.000001 
0.916019 88.391266 45.913628 2.224544 5.340559 1.113478 -0.028047 1.380326 3.907977 -0.418974 3.330490 -3.436292 -0.674245 1.657931 6.589963 -13.765990 12.141246 14.461835 1.269970 7.018640 -3.681009 -0.735600 7.149622 -9.279637 0.000076 -0.000023 0.000006 -0.008841 -0.000298 0.010952 0.725959 -3.747687 -10.717724 -0.752864 3.742475 -10.709565 6.332961 -1.561779 6.733924 -51.215679 -38.289509 -25.785265 -179.532913 -43.030148 179.707260 9.188371 11.456443 16.960505 -5.882101 9.861278 0.702590 -10.936860 -0.360574 7.156195 0.000000 8.774813 0.000000 -16.593178 16.685635 5.499384 -1.844031 2.498503 -2.507274 -10.163591 4.678941 4.621107 -20.975996 -0.000004 0.000002 -21.226254 2.451692 -3.593994 -0.000001 -0.000008 0.000000 -1.362681 2.240795 -0.746324 -21.334887 0.584908 3.008318 -13.821197 -0.000001 0.000003 -23.887133 -0.249078 -0.839482 -60.516537 2.037140 -1.044898 -0.294025 1.679686 0.833256 -14.218192 0.093214 1.300579 -34.212006 -0.287564 0.967169 -20.033178 0.964535 1.212841 0.000000 0.000001 0.000000 -3.440385 0.788232 0.501654 -15.928165 -3.167305 2.999701 -6.338817 -0.000002 0.000001 -18.123413 3.648176 -4.905662 -0.000004 0.000003 -0.000002 -10.295538 17.618479 5.293256 57.389179 56.060177 -3.646051 -179.726044 58.490314 -179.570526 -8.324744 -12.786776 9.418818 2.243541 -5.255033 -3.180155 14.282877 -0.826593 6.952496 -0.000002 -12.690590 0.000000 16.181143 -17.637064 2.531908 1.665663 -1.955920 -2.878296 4.727795 -4.170583 4.993919 11.020511 0.000004 -0.000001 12.109028 -3.735708 -2.866779 -0.000001 0.000000 -0.000000 1.291984 -1.928547 -1.498087 14.800111 0.567469 3.865603 14.242554 -1.341735 -6.660648 19.631937 0.143927 -0.648243 50.094006 -0.806269 -5.862354 0.353029 -1.511150 -0.031940 20.222767 3.684307 2.316627 18.787245 0.000005 -0.000002 10.751612 -0.479868 1.397905 -0.000000 0.000000 0.000001 3.273804 0.305947 -0.580110 21.486792 11.830362 2.266132 8.162916 0.000002 -0.000001 18.399054 -3.798977 -4.940567 0.000003 0.000000 -0.000001 15.633931 9.955911 -35.278076 -0.700556 -1.137403 41.284225 -22.640562 -13.080974 -1.194118 1.607479 -1.970830 -0.875480 -0.000000 0.000000 0.000002 -27.540318 -15.233464 1.255148 0.539583 1.941107 38.611191 21.143877 14.867318 -16.084118 -1.469177 0.855513 -5.606209 0.000000 0.000000 -0.000001 
